<svg xmlns="http://www.w3.org/2000/svg" viewBox="0 0 1200 750" width="1200" height="750">
<defs>
  <radialGradient id="bg" cx="55%" cy="45%" r="75%"><stop offset="0" stop-color="#173058"/><stop offset="1" stop-color="#0a192f"/></radialGradient>
  <linearGradient id="gMetal" x1="0" x2="1"><stop offset="0" stop-color="#6c7a90"/><stop offset="0.45" stop-color="#55647a"/><stop offset="1" stop-color="#2c374a"/></linearGradient>
  <linearGradient id="gGold" x1="0" x2="1"><stop offset="0" stop-color="#ffd166"/><stop offset="0.5" stop-color="#f4b400"/><stop offset="1" stop-color="#9c6b00"/></linearGradient>
  <linearGradient id="gArea" x1="0" y1="0" x2="0" y2="1"><stop offset="0" stop-color="#64ffda" stop-opacity="0.35"/><stop offset="1" stop-color="#64ffda" stop-opacity="0"/></linearGradient>
  <radialGradient id="gHeat"><stop offset="0" stop-color="#ff7b00" stop-opacity="0.55"/><stop offset="1" stop-color="#ff7b00" stop-opacity="0"/></radialGradient>
  <radialGradient id="gHeatTeal"><stop offset="0" stop-color="#64ffda" stop-opacity="0.45"/><stop offset="1" stop-color="#64ffda" stop-opacity="0"/></radialGradient>
  <filter id="blur" x="-50%" y="-50%" width="200%" height="200%"><feGaussianBlur stdDeviation="6"/></filter>
  <filter id="glow" x="-200%" y="-200%" width="500%" height="500%"><feGaussianBlur stdDeviation="3" result="b"/><feMerge><feMergeNode in="b"/><feMergeNode in="SourceGraphic"/></feMerge></filter>
</defs>
<rect width="1200" height="750" fill="url(#bg)"/>
<polygon points="360.9,383 811.2,643 811.2,625 360.9,365" fill="#172944"/>
<polygon points="1140.3,453 811.2,643 811.2,625 1140.3,435" fill="#101d30"/>
<polygon points="690,175 1140.3,435 811.2,625 360.9,365" fill="#1d3557"/>
<polyline points="690,175 360.9,365" stroke="#64ffda" fill="none" stroke-opacity="0.07"/>
<polyline points="714.2,189 385.2,379" stroke="#64ffda" fill="none" stroke-opacity="0.07"/>
<polyline points="738.5,203 409.4,393" stroke="#64ffda" fill="none" stroke-opacity="0.07"/>
<polyline points="762.7,217 433.7,407" stroke="#64ffda" fill="none" stroke-opacity="0.07"/>
<polyline points="787,231 457.9,421" stroke="#64ffda" fill="none" stroke-opacity="0.07"/>
<polyline points="811.2,245 482.2,435" stroke="#64ffda" fill="none" stroke-opacity="0.07"/>
<polyline points="835.5,259 506.4,449" stroke="#64ffda" fill="none" stroke-opacity="0.07"/>
<polyline points="859.7,273 530.7,463" stroke="#64ffda" fill="none" stroke-opacity="0.07"/>
<polyline points="884,287 554.9,477" stroke="#64ffda" fill="none" stroke-opacity="0.07"/>
<polyline points="908.2,301 579.1,491" stroke="#64ffda" fill="none" stroke-opacity="0.07"/>
<polyline points="932.5,315 603.4,505" stroke="#64ffda" fill="none" stroke-opacity="0.07"/>
<polyline points="956.7,329 627.6,519" stroke="#64ffda" fill="none" stroke-opacity="0.07"/>
<polyline points="981,343 651.9,533" stroke="#64ffda" fill="none" stroke-opacity="0.07"/>
<polyline points="1005.2,357 676.1,547" stroke="#64ffda" fill="none" stroke-opacity="0.07"/>
<polyline points="1029.5,371 700.4,561" stroke="#64ffda" fill="none" stroke-opacity="0.07"/>
<polyline points="1053.7,385 724.6,575" stroke="#64ffda" fill="none" stroke-opacity="0.07"/>
<polyline points="1078,399 748.9,589" stroke="#64ffda" fill="none" stroke-opacity="0.07"/>
<polyline points="1102.2,413 773.1,603" stroke="#64ffda" fill="none" stroke-opacity="0.07"/>
<polyline points="1126.5,427 797.4,617" stroke="#64ffda" fill="none" stroke-opacity="0.07"/>
<polyline points="690,175 1140.3,435" stroke="#64ffda" fill="none" stroke-opacity="0.07"/>
<polyline points="665.8,189 1116.1,449" stroke="#64ffda" fill="none" stroke-opacity="0.07"/>
<polyline points="641.5,203 1091.8,463" stroke="#64ffda" fill="none" stroke-opacity="0.07"/>
<polyline points="617.3,217 1067.6,477" stroke="#64ffda" fill="none" stroke-opacity="0.07"/>
<polyline points="593,231 1043.3,491" stroke="#64ffda" fill="none" stroke-opacity="0.07"/>
<polyline points="568.8,245 1019.1,505" stroke="#64ffda" fill="none" stroke-opacity="0.07"/>
<polyline points="544.5,259 994.8,519" stroke="#64ffda" fill="none" stroke-opacity="0.07"/>
<polyline points="520.3,273 970.6,533" stroke="#64ffda" fill="none" stroke-opacity="0.07"/>
<polyline points="496,287 946.3,547" stroke="#64ffda" fill="none" stroke-opacity="0.07"/>
<polyline points="471.8,301 922.1,561" stroke="#64ffda" fill="none" stroke-opacity="0.07"/>
<polyline points="447.5,315 897.8,575" stroke="#64ffda" fill="none" stroke-opacity="0.07"/>
<polyline points="423.3,329 873.6,589" stroke="#64ffda" fill="none" stroke-opacity="0.07"/>
<polyline points="399,343 849.3,603" stroke="#64ffda" fill="none" stroke-opacity="0.07"/>
<polyline points="374.8,357 825.1,617" stroke="#64ffda" fill="none" stroke-opacity="0.07"/>
<polyline points="664,239.4 755,291.9" stroke="#64ffda" fill="none" stroke-width="5" stroke-opacity="0.45" stroke-linecap="round"/>
<polyline points="664,239.4 755,291.9" stroke="#64ffda" fill="none" stroke-width="1.5" stroke-dasharray="2 10" filter="url(#glow)"/>
<polyline points="755,291.9 845.9,344.4" stroke="#64ffda" fill="none" stroke-width="5" stroke-opacity="0.45" stroke-linecap="round"/>
<polyline points="755,291.9 845.9,344.4" stroke="#64ffda" fill="none" stroke-width="1.5" stroke-dasharray="2 10" filter="url(#glow)"/>
<polyline points="845.9,344.4 936.8,396.9" stroke="#64ffda" fill="none" stroke-width="5" stroke-opacity="0.45" stroke-linecap="round"/>
<polyline points="845.9,344.4 936.8,396.9" stroke="#64ffda" fill="none" stroke-width="1.5" stroke-dasharray="2 10" filter="url(#glow)"/>
<polyline points="936.8,396.9 1027.7,449.4" stroke="#64ffda" fill="none" stroke-width="5" stroke-opacity="0.45" stroke-linecap="round"/>
<polyline points="936.8,396.9 1027.7,449.4" stroke="#64ffda" fill="none" stroke-width="1.5" stroke-dasharray="2 10" filter="url(#glow)"/>
<polyline points="1027.7,449.4 858.9,546.9" stroke="#64ffda" fill="none" stroke-width="5" stroke-opacity="0.45" stroke-linecap="round"/>
<polyline points="1027.7,449.4 858.9,546.9" stroke="#64ffda" fill="none" stroke-width="1.5" stroke-dasharray="2 10" filter="url(#glow)"/>
<polyline points="858.9,546.9 767.9,494.4" stroke="#64ffda" fill="none" stroke-width="5" stroke-opacity="0.45" stroke-linecap="round"/>
<polyline points="858.9,546.9 767.9,494.4" stroke="#64ffda" fill="none" stroke-width="1.5" stroke-dasharray="2 10" filter="url(#glow)"/>
<polyline points="767.9,494.4 677,441.9" stroke="#64ffda" fill="none" stroke-width="5" stroke-opacity="0.45" stroke-linecap="round"/>
<polyline points="767.9,494.4 677,441.9" stroke="#64ffda" fill="none" stroke-width="1.5" stroke-dasharray="2 10" filter="url(#glow)"/>
<polyline points="677,441.9 586.1,389.4" stroke="#64ffda" fill="none" stroke-width="5" stroke-opacity="0.45" stroke-linecap="round"/>
<polyline points="677,441.9 586.1,389.4" stroke="#64ffda" fill="none" stroke-width="1.5" stroke-dasharray="2 10" filter="url(#glow)"/>
<polyline points="586.1,389.4 491.7,334.9" stroke="#64ffda" fill="none" stroke-width="5" stroke-opacity="0.45" stroke-linecap="round"/>
<polyline points="586.1,389.4 491.7,334.9" stroke="#64ffda" fill="none" stroke-width="1.5" stroke-dasharray="2 10" filter="url(#glow)"/>
<ellipse cx="971.5" cy="512.5" rx="7" ry="3.5" fill="#000" opacity="0.3"/>
<rect x="970" y="500.5" width="3" height="12" fill="#5c4033"/>
<circle cx="971.5" cy="495.5" r="9" fill="#2a9d8f"/>
<circle cx="969" cy="492.5" r="4" fill="#52c7b8" opacity="0.6"/>
<ellipse cx="555.8" cy="272.5" rx="7" ry="3.5" fill="#000" opacity="0.3"/>
<rect x="554.3" y="260.5" width="3" height="12" fill="#5c4033"/>
<circle cx="555.8" cy="255.5" r="9" fill="#2a9d8f"/>
<circle cx="553.3" cy="252.5" r="4" fill="#52c7b8" opacity="0.6"/>
<ellipse cx="655.4" cy="515" rx="7.7" ry="3.9" fill="#000" opacity="0.3"/>
<rect x="653.9" y="501.8" width="3" height="13.2" fill="#5c4033"/>
<circle cx="655.4" cy="496.3" r="9.9" fill="#2a9d8f"/>
<circle cx="652.6" cy="493" r="4.4" fill="#52c7b8" opacity="0.6"/>
<ellipse cx="811.2" cy="605" rx="6.3" ry="3.2" fill="#000" opacity="0.3"/>
<rect x="809.7" y="594.2" width="3" height="10.8" fill="#5c4033"/>
<circle cx="811.2" cy="589.7" r="8.1" fill="#2a9d8f"/>
<circle cx="809" cy="587" r="3.6" fill="#52c7b8" opacity="0.6"/>
<ellipse cx="464.8" cy="405" rx="6.3" ry="3.2" fill="#000" opacity="0.3"/>
<rect x="463.3" y="394.2" width="3" height="10.8" fill="#5c4033"/>
<circle cx="464.8" cy="389.7" r="8.1" fill="#2a9d8f"/>
<circle cx="462.6" cy="387" r="3.6" fill="#52c7b8" opacity="0.6"/>
<polygon points="608.6,240 664,272 664,260 608.6,228" fill="#167a65"/>
<polygon points="719.4,240 664,272 664,260 719.4,228" fill="#0f5546"/>
<polygon points="664,196 719.4,228 664,260 608.6,228" fill="#1f9e83"/>
<polygon points="664,200.6 710.8,227.6 664,254.6 617.3,227.6" fill="#0a192f" opacity="0.25"/>
<polygon points="650.2,204 664,212 664,196 650.2,188" fill="#475364"/>
<polygon points="677.9,204 664,212 664,196 677.9,188" fill="#323b46"/>
<polygon points="664,180 677.9,188 664,196 650.2,188" fill="#5b6b80"/>
<polygon points="669.2,215 683.1,223 683.1,207 669.2,199" fill="#303b4b"/>
<polygon points="696.9,215 683.1,223 683.1,207 696.9,199" fill="#222a35"/>
<polygon points="683.1,191 696.9,199 683.1,207 669.2,199" fill="#3d4c60"/>
<polygon points="688.3,226 702.1,234 702.1,218 688.3,210" fill="#475364"/>
<polygon points="716,226 702.1,234 702.1,218 716,210" fill="#323b46"/>
<polygon points="702.1,202 716,210 702.1,218 688.3,210" fill="#5b6b80"/>
<polygon points="631.1,215 645,223 645,207 631.1,199" fill="#475364"/>
<polygon points="658.8,215 645,223 645,207 658.8,199" fill="#323b46"/>
<polygon points="645,191 658.8,199 645,207 631.1,199" fill="#5b6b80"/>
<polygon points="650.2,226 664,234 664,218 650.2,210" fill="#303b4b"/>
<polygon points="677.9,226 664,234 664,218 677.9,210" fill="#222a35"/>
<polygon points="664,202 677.9,210 664,218 650.2,210" fill="#3d4c60"/>
<polygon points="669.2,237 683.1,245 683.1,217 669.2,209" fill="#1f9e83"/>
<polygon points="696.9,237 683.1,245 683.1,217 696.9,209" fill="#167a65"/>
<polygon points="683.1,201 696.9,209 683.1,217 669.2,209" fill="#64ffda"/>
<polygon points="612.1,226 625.9,234 625.9,218 612.1,210" fill="#475364"/>
<polygon points="639.8,226 625.9,234 625.9,218 639.8,210" fill="#323b46"/>
<polygon points="625.9,202 639.8,210 625.9,218 612.1,210" fill="#5b6b80"/>
<polygon points="631.1,237 645,245 645,229 631.1,221" fill="#303b4b"/>
<polygon points="658.8,237 645,245 645,229 658.8,221" fill="#222a35"/>
<polygon points="645,213 658.8,221 645,229 631.1,221" fill="#3d4c60"/>
<polygon points="650.2,248 664,256 664,240 650.2,232" fill="#475364"/>
<polygon points="677.9,248 664,256 664,240 677.9,232" fill="#323b46"/>
<polygon points="664,224 677.9,232 664,240 650.2,232" fill="#5b6b80"/>
<path d="M683.1,193 l0,18 l5,-5 l4,8 l3,-1.5 l-4,-8 l7,0 Z" fill="#ffffff" stroke="#0a192f" stroke-width="1"/>
<polygon points="699.5,292.5 755,324.5 755,312.5 699.5,280.5" fill="#167a65"/>
<polygon points="810.4,292.5 755,324.5 755,312.5 810.4,280.5" fill="#0f5546"/>
<polygon points="755,248.5 810.4,280.5 755,312.5 699.5,280.5" fill="#1f9e83"/>
<polygon points="755,253.1 801.7,280.1 755,307.1 708.2,280.1" fill="#0a192f" opacity="0.25"/>
<polygon points="696.1,290.5 725.5,307.5 725.5,303.5 696.1,286.5" fill="#1f5fc4"/>
<polygon points="765.3,284.5 725.5,307.5 725.5,303.5 765.3,280.5" fill="#174a99"/>
<polygon points="735.9,263.5 765.3,280.5 725.5,303.5 696.1,286.5" fill="#3b82f6"/>
<polygon points="711.7,281.2 734.2,294.2 729,297.2 706.5,284.2" fill="#ffd166" opacity="0.9"/>
<path d="M763.3,278.5 L763.3,284.5 A15.9,9.2 0 0 0 795.1,284.5 L795.1,278.5 Z" fill="url(#gGold)"/>
<ellipse cx="779.2" cy="278.5" rx="15.9" ry="9.2" fill="#ffd166"/>
<path d="M763.3,272.5 L763.3,278.5 A15.9,9.2 0 0 0 795.1,278.5 L795.1,272.5 Z" fill="url(#gGold)"/>
<ellipse cx="779.2" cy="272.5" rx="15.9" ry="9.2" fill="#ffd166"/>
<path d="M763.3,266.5 L763.3,272.5 A15.9,9.2 0 0 0 795.1,272.5 L795.1,266.5 Z" fill="url(#gGold)"/>
<ellipse cx="779.2" cy="266.5" rx="15.9" ry="9.2" fill="#ffd166"/>
<path d="M763.3,260.5 L763.3,266.5 A15.9,9.2 0 0 0 795.1,266.5 L795.1,260.5 Z" fill="url(#gGold)"/>
<ellipse cx="779.2" cy="260.5" rx="15.9" ry="9.2" fill="#ffd166"/>
<text x="779.2" y="264.5" font-family="Consolas, monospace" font-size="11" fill="#8f6600" text-anchor="middle" font-weight="bold">₹</text>
<ellipse cx="491.7" cy="335.5" rx="84" ry="48" fill="url(#gHeat)"/>
<polygon points="422.4,335.5 491.7,375.5 491.7,363.5 422.4,323.5" fill="#c98f00"/>
<polygon points="561,335.5 491.7,375.5 491.7,363.5 561,323.5" fill="#8f6600"/>
<polygon points="491.7,283.5 561,323.5 491.7,363.5 422.4,323.5" fill="#ffb703"/>
<polygon points="491.7,288.1 552.3,323.1 491.7,358.1 431.1,323.1" fill="#0a192f" opacity="0.25"/>
<polygon points="449.2,322 494.3,348 494.3,312 449.2,286" fill="#c9d1dc"/>
<polygon points="534.1,325 494.3,348 494.3,312 534.1,289" fill="#9aa5b5"/>
<polygon points="489.1,263 534.1,289 494.3,312 449.2,286" fill="#e8eef5"/>
<polygon points="467.3,332.4 476.3,337.6 476.3,315.3 467.3,310.1" fill="#7a4b3a"/>
<polygon points="454.6,310.7 462.8,315.4 462.8,302.8 454.6,298.1" fill="#ffd166"/>
<polygon points="506.2,326.7 522.2,317.5 522.2,304.9 506.2,314.1" fill="#ffd166" opacity="0.8"/>
<polygon points="534.1,289 494.3,312 514.2,278.5" fill="#b5bcc6"/>
<polygon points="444,288 494.3,317 516.8,280 466.6,251" fill="#c74634"/>
<g filter="url(#glow)"><circle cx="526.3" cy="269.5" r="8" fill="none" stroke="#ffd166" stroke-width="4"/><line x1="534.3" y1="269.5" x2="556.3" y2="269.5" stroke="#ffd166" stroke-width="4" stroke-linecap="round"/><line x1="550.3" y1="269.5" x2="550.3" y2="276.5" stroke="#ffd166" stroke-width="4"/><line x1="556.3" y1="269.5" x2="556.3" y2="278.5" stroke="#ffd166" stroke-width="4"/></g>
<polygon points="790.5,345 845.9,377 845.9,365 790.5,333" fill="#167a65"/>
<polygon points="901.3,345 845.9,377 845.9,365 901.3,333" fill="#0f5546"/>
<polygon points="845.9,301 901.3,333 845.9,365 790.5,333" fill="#1f9e83"/>
<polygon points="845.9,305.6 892.6,332.6 845.9,359.6 799.1,332.6" fill="#0a192f" opacity="0.25"/>
<polygon points="804.3,331 849.3,357 849.3,351 804.3,325" fill="#6b7a91"/>
<polygon points="887.5,335 849.3,357 849.3,351 887.5,329" fill="#4b566a"/>
<polygon points="842.4,303 887.5,329 849.3,351 804.3,325" fill="#8a9bb4"/>
<polygon points="810.4,325.5 814.7,328 814.7,302 810.4,299.5" fill="#c9d1dc"/>
<polygon points="819,325.5 814.7,328 814.7,302 819,299.5" fill="#9aa5b5"/>
<polygon points="814.7,297 819,299.5 814.7,302 810.4,299.5" fill="#e8eef5"/>
<polygon points="821.6,332 826,334.5 826,308.5 821.6,306" fill="#c9d1dc"/>
<polygon points="830.3,332 826,334.5 826,308.5 830.3,306" fill="#9aa5b5"/>
<polygon points="826,303.5 830.3,306 826,308.5 821.6,306" fill="#e8eef5"/>
<polygon points="832.9,338.5 837.2,341 837.2,315 832.9,312.5" fill="#c9d1dc"/>
<polygon points="841.6,338.5 837.2,341 837.2,315 841.6,312.5" fill="#9aa5b5"/>
<polygon points="837.2,310 841.6,312.5 837.2,315 832.9,312.5" fill="#e8eef5"/>
<polygon points="844.2,345 848.5,347.5 848.5,321.5 844.2,319" fill="#c9d1dc"/>
<polygon points="852.8,345 848.5,347.5 848.5,321.5 852.8,319" fill="#9aa5b5"/>
<polygon points="848.5,316.5 852.8,319 848.5,321.5 844.2,319" fill="#e8eef5"/>
<polygon points="804.3,299 849.3,325 849.3,319 804.3,293" fill="#6b7a91"/>
<polygon points="887.5,303 849.3,325 849.3,319 887.5,297" fill="#4b566a"/>
<polygon points="842.4,271 887.5,297 849.3,319 804.3,293" fill="#8a9bb4"/>
<polygon points="887.5,297 849.3,319 868.4,292" fill="#8a9bb4"/>
<polygon points="804.3,293 849.3,319 868.4,292 823.4,266" fill="#6b7a91"/>
<text transform="matrix(0.8660254 0.5 0 1 814.7 297)" font-family="Consolas, monospace" font-size="8" fill="#ffd166" font-weight="bold">BANK</text>
<polygon points="530.7,390 586.1,422 586.1,410 530.7,378" fill="#167a65"/>
<polygon points="641.5,390 586.1,422 586.1,410 641.5,378" fill="#0f5546"/>
<polygon points="586.1,346 641.5,378 586.1,410 530.7,378" fill="#1f9e83"/>
<polygon points="586.1,350.6 632.8,377.6 586.1,404.6 539.3,377.6" fill="#0a192f" opacity="0.25"/>
<polygon points="545.4,376.5 588.7,401.5 588.7,367.5 545.4,342.5" fill="#c9d1dc"/>
<polygon points="626.8,379.5 588.7,401.5 588.7,367.5 626.8,345.5" fill="#9aa5b5"/>
<polygon points="583.5,320.5 626.8,345.5 588.7,367.5 545.4,342.5" fill="#e8eef5"/>
<polygon points="562.7,386.5 571.4,391.5 571.4,370.4 562.7,365.4" fill="#7a4b3a"/>
<polygon points="550.6,365.9 558.4,370.4 558.4,358.5 550.6,354" fill="#ffd166"/>
<polygon points="600.1,381.3 615.3,372.5 615.3,360.6 600.1,369.4" fill="#ffd166" opacity="0.8"/>
<polygon points="626.8,345.5 588.7,367.5 607.7,334.5" fill="#b5bcc6"/>
<polygon points="540.2,344.5 588.7,372.5 610.3,336 561.8,308" fill="#c74634"/>
<polygon points="881.4,397.5 936.8,429.5 936.8,417.5 881.4,385.5" fill="#167a65"/>
<polygon points="992.2,397.5 936.8,429.5 936.8,417.5 992.2,385.5" fill="#0f5546"/>
<polygon points="936.8,353.5 992.2,385.5 936.8,417.5 881.4,385.5" fill="#1f9e83"/>
<polygon points="936.8,358.1 983.6,385.1 936.8,412.1 890.1,385.1" fill="#0a192f" opacity="0.25"/>
<polygon points="918.6,380 956.7,402 956.7,344 918.6,322" fill="#000" opacity="0.25"/>
<polygon points="917.8,372.5 955.9,394.5 955.9,336.5 917.8,314.5" fill="#e8eef5"/>
<polygon points="917.8,328.5 955.9,350.5 955.9,336.5 917.8,314.5" fill="#ffb703"/>
<polygon points="924.7,347.5 948.9,361.5 948.9,358.5 924.7,344.5" fill="#8d99ae"/>
<polygon points="924.7,358.5 936.8,365.5 936.8,362.5 924.7,355.5" fill="#8d99ae"/>
<polygon points="924.7,369.5 948.9,383.5 948.9,380.5 924.7,366.5" fill="#8d99ae"/>
<polygon points="924.7,380.5 936.8,387.5 936.8,384.5 924.7,377.5" fill="#8d99ae"/>
<text transform="matrix(0.8660254 0.5 0 1 922.1 328)" font-family="Consolas, monospace" font-size="9" fill="#ffffff" font-weight="bold">LOI</text>
<polygon points="621.6,442.5 677,474.5 677,462.5 621.6,430.5" fill="#167a65"/>
<polygon points="732.4,442.5 677,474.5 677,462.5 732.4,430.5" fill="#0f5546"/>
<polygon points="677,398.5 732.4,430.5 677,462.5 621.6,430.5" fill="#1f9e83"/>
<polygon points="677,403.1 723.8,430.1 677,457.1 630.2,430.1" fill="#0a192f" opacity="0.25"/>
<polygon points="658.8,425 696.9,447 696.9,389 658.8,367" fill="#000" opacity="0.25"/>
<polygon points="658,417.5 696.1,439.5 696.1,381.5 658,359.5" fill="#e8eef5"/>
<polygon points="658,373.5 696.1,395.5 696.1,381.5 658,359.5" fill="#7c3aed"/>
<polygon points="664.9,392.5 689.1,406.5 689.1,403.5 664.9,389.5" fill="#8d99ae"/>
<polygon points="664.9,403.5 677,410.5 677,407.5 664.9,400.5" fill="#8d99ae"/>
<polygon points="664.9,414.5 689.1,428.5 689.1,425.5 664.9,411.5" fill="#8d99ae"/>
<polygon points="664.9,425.5 677,432.5 677,429.5 664.9,422.5" fill="#8d99ae"/>
<text transform="matrix(0.8660254 0.5 0 1 662.3 373)" font-family="Consolas, monospace" font-size="9" fill="#ffffff" font-weight="bold">e-REG</text>
<circle cx="685.7" cy="417.5" r="10" fill="none" stroke="#7c3aed" stroke-width="2.5"/><circle cx="685.7" cy="417.5" r="5" fill="#7c3aed" opacity="0.7"/>
<line x1="664.3" y1="417.5" x2="686.3" y2="389.5" stroke="#ffb703" stroke-width="4" stroke-linecap="round"/>
<polygon points="972.3,450 1027.7,482 1027.7,470 972.3,438" fill="#167a65"/>
<polygon points="1083.2,450 1027.7,482 1027.7,470 1083.2,438" fill="#0f5546"/>
<polygon points="1027.7,406 1083.2,438 1027.7,470 972.3,438" fill="#1f9e83"/>
<polygon points="1027.7,410.6 1074.5,437.6 1027.7,464.6 981,437.6" fill="#0a192f" opacity="0.25"/>
<polygon points="1009.6,432.5 1047.7,454.5 1047.7,396.5 1009.6,374.5" fill="#000" opacity="0.25"/>
<polygon points="1008.7,425 1046.8,447 1046.8,389 1008.7,367" fill="#e8eef5"/>
<polygon points="1008.7,381 1046.8,403 1046.8,389 1008.7,367" fill="#2ecc71"/>
<polygon points="1015.6,400 1039.9,414 1039.9,411 1015.6,397" fill="#8d99ae"/>
<polygon points="1015.6,411 1027.7,418 1027.7,415 1015.6,408" fill="#8d99ae"/>
<polygon points="1015.6,422 1039.9,436 1039.9,433 1015.6,419" fill="#8d99ae"/>
<polygon points="1015.6,433 1027.7,440 1027.7,437 1015.6,430" fill="#8d99ae"/>
<polyline points="1020.8,410 1027.7,423 1039.9,411" stroke="#2ecc71" fill="none" stroke-width="4" stroke-linecap="round" stroke-linejoin="round"/>
<text transform="matrix(0.8660254 0.5 0 1 1013 380.5)" font-family="Consolas, monospace" font-size="9" fill="#ffffff" font-weight="bold">ACCEPT</text>
<polygon points="712.5,495 767.9,527 767.9,515 712.5,483" fill="#167a65"/>
<polygon points="823.4,495 767.9,527 767.9,515 823.4,483" fill="#0f5546"/>
<polygon points="767.9,451 823.4,483 767.9,515 712.5,483" fill="#1f9e83"/>
<polygon points="767.9,455.6 814.7,482.6 767.9,509.6 721.2,482.6" fill="#0a192f" opacity="0.25"/>
<polygon points="749.8,477.5 787.9,499.5 787.9,441.5 749.8,419.5" fill="#000" opacity="0.25"/>
<polygon points="748.9,470 787,492 787,434 748.9,412" fill="#e8eef5"/>
<polygon points="748.9,426 787,448 787,434 748.9,412" fill="#2ecc71"/>
<polygon points="755.8,445 780.1,459 780.1,456 755.8,442" fill="#8d99ae"/>
<polygon points="755.8,456 767.9,463 767.9,460 755.8,453" fill="#8d99ae"/>
<polygon points="755.8,467 780.1,481 780.1,478 755.8,464" fill="#8d99ae"/>
<polygon points="755.8,478 767.9,485 767.9,482 755.8,475" fill="#8d99ae"/>
<circle cx="771.4" cy="463" r="11" fill="#e63946"/><circle cx="771.4" cy="463" r="7" fill="none" stroke="#ffd166" stroke-width="1.5"/>
<text transform="matrix(0.8660254 0.5 0 1 753.2 425.5)" font-family="Consolas, monospace" font-size="9" fill="#0a192f" font-weight="bold">NOC</text>
<polygon points="803.4,547.5 858.9,579.5 858.9,567.5 803.4,535.5" fill="#167a65"/>
<polygon points="914.3,547.5 858.9,579.5 858.9,567.5 914.3,535.5" fill="#0f5546"/>
<polygon points="858.9,503.5 914.3,535.5 858.9,567.5 803.4,535.5" fill="#1f9e83"/>
<polygon points="858.9,508.1 905.6,535.1 858.9,562.1 812.1,535.1" fill="#0a192f" opacity="0.25"/>
<polygon points="840.7,530 878.8,552 878.8,494 840.7,472" fill="#000" opacity="0.25"/>
<polygon points="839.8,522.5 877.9,544.5 877.9,486.5 839.8,464.5" fill="#e8eef5"/>
<polygon points="839.8,478.5 877.9,500.5 877.9,486.5 839.8,464.5" fill="#e63946"/>
<polygon points="846.8,497.5 871,511.5 871,508.5 846.8,494.5" fill="#8d99ae"/>
<polygon points="846.8,508.5 858.9,515.5 858.9,512.5 846.8,505.5" fill="#8d99ae"/>
<polygon points="846.8,519.5 871,533.5 871,530.5 846.8,516.5" fill="#8d99ae"/>
<polygon points="846.8,530.5 858.9,537.5 858.9,534.5 846.8,527.5" fill="#8d99ae"/>
<text transform="matrix(0.8660254 0.5 0 1 844.2 478)" font-family="Consolas, monospace" font-size="9" fill="#ffffff" font-weight="bold">POL</text>
<rect x="622.2" y="150" width="83.7" height="22" rx="11" fill="#0d1b33" fill-opacity="0.92" stroke="#64ffda" stroke-opacity="0.9"/>
<text x="664" y="165" font-family="Consolas, monospace" font-size="12" fill="#64ffda" text-anchor="middle" font-weight="bold">01 SELECT</text>
<rect x="709.5" y="212.5" width="91" height="22" rx="11" fill="#0d1b33" fill-opacity="0.92" stroke="#64ffda" stroke-opacity="0.9"/>
<text x="755" y="227.5" font-family="Consolas, monospace" font-size="12" fill="#64ffda" text-anchor="middle" font-weight="bold">02 PAYMENT</text>
<rect x="457.1" y="197.5" width="69.1" height="22" rx="11" fill="#0d1b33" fill-opacity="0.92" stroke="#ffb703" stroke-opacity="0.9"/>
<text x="491.7" y="212.5" font-family="Consolas, monospace" font-size="12" fill="#ffb703" text-anchor="middle" font-weight="bold">10 KEYS</text>
<rect x="793.1" y="239" width="105.6" height="22" rx="11" fill="#0d1b33" fill-opacity="0.92" stroke="#64ffda" stroke-opacity="0.9"/>
<text x="845.9" y="254" font-family="Consolas, monospace" font-size="12" fill="#64ffda" text-anchor="middle" font-weight="bold">03 DOCS/LOAN</text>
<rect x="529.6" y="284" width="112.9" height="22" rx="11" fill="#0d1b33" fill-opacity="0.92" stroke="#64ffda" stroke-opacity="0.9"/>
<text x="586.1" y="299" font-family="Consolas, monospace" font-size="12" fill="#64ffda" text-anchor="middle" font-weight="bold">09 POSSESSION</text>
<rect x="905.9" y="285.5" width="61.8" height="22" rx="11" fill="#0d1b33" fill-opacity="0.92" stroke="#64ffda" stroke-opacity="0.9"/>
<text x="936.8" y="300.5" font-family="Consolas, monospace" font-size="12" fill="#64ffda" text-anchor="middle" font-weight="bold">04 LOI</text>
<rect x="638.8" y="330.5" width="76.4" height="22" rx="11" fill="#0d1b33" fill-opacity="0.92" stroke="#64ffda" stroke-opacity="0.9"/>
<text x="677" y="345.5" font-family="Consolas, monospace" font-size="12" fill="#64ffda" text-anchor="middle" font-weight="bold">08 e-REG</text>
<rect x="985.9" y="338" width="83.7" height="22" rx="11" fill="#0d1b33" fill-opacity="0.92" stroke="#64ffda" stroke-opacity="0.9"/>
<text x="1027.7" y="353" font-family="Consolas, monospace" font-size="12" fill="#64ffda" text-anchor="middle" font-weight="bold">05 ACCEPT</text>
<rect x="737" y="383" width="61.8" height="22" rx="11" fill="#0d1b33" fill-opacity="0.92" stroke="#64ffda" stroke-opacity="0.9"/>
<text x="767.9" y="398" font-family="Consolas, monospace" font-size="12" fill="#64ffda" text-anchor="middle" font-weight="bold">07 NOC</text>
<rect x="828" y="435.5" width="61.8" height="22" rx="11" fill="#0d1b33" fill-opacity="0.92" stroke="#64ffda" stroke-opacity="0.9"/>
<text x="858.9" y="450.5" font-family="Consolas, monospace" font-size="12" fill="#64ffda" text-anchor="middle" font-weight="bold">06 POL</text>
<g>
  <rect x="40" y="36" width="290" height="368" rx="12" fill="#112240" fill-opacity="0.92" stroke="#64ffda" stroke-opacity="0.5"/>
  <rect x="40" y="36" width="290" height="38" rx="12" fill="#0d1b33"/>
  <circle cx="60" cy="55" r="5" fill="#2ecc71" filter="url(#glow)"/>
  <text x="74" y="60" font-family="Consolas, monospace" font-size="14" fill="#64ffda" font-weight="bold">FCFS · TENEMENT</text>
  <text x="58" y="96" font-family="Consolas, monospace" font-size="12" fill="#8892b0">Tenement SAT-B2-0304</text>
  <line x1="66" y1="118" x2="66" y2="130" stroke="#64ffda" stroke-width="2"/>
  <circle cx="66" cy="112" r="7" fill="#1f9e83"/><path d="M62.5,112 l2.5,3 l5,-6" fill="none" stroke="#0a192f" stroke-width="2" stroke-linecap="round" stroke-linejoin="round"/>
  <text x="84" y="116" font-family="Consolas, monospace" font-size="12" fill="#ccd6f6">Tenement Selection</text>
  <text x="316" y="116" font-family="Consolas, monospace" font-size="10" fill="#64ffda" text-anchor="end" opacity="0.85">Done</text>
  <line x1="66" y1="142" x2="66" y2="154" stroke="#64ffda" stroke-width="2"/>
  <circle cx="66" cy="136" r="7" fill="#1f9e83"/><path d="M62.5,136 l2.5,3 l5,-6" fill="none" stroke="#0a192f" stroke-width="2" stroke-linecap="round" stroke-linejoin="round"/>
  <text x="84" y="140" font-family="Consolas, monospace" font-size="12" fill="#ccd6f6">Payment</text>
  <text x="316" y="140" font-family="Consolas, monospace" font-size="10" fill="#64ffda" text-anchor="end" opacity="0.85">Done</text>
  <line x1="66" y1="166" x2="66" y2="178" stroke="#64ffda" stroke-width="2"/>
  <circle cx="66" cy="160" r="7" fill="#1f9e83"/><path d="M62.5,160 l2.5,3 l5,-6" fill="none" stroke="#0a192f" stroke-width="2" stroke-linecap="round" stroke-linejoin="round"/>
  <text x="84" y="164" font-family="Consolas, monospace" font-size="12" fill="#ccd6f6">Documents &amp; Loan</text>
  <text x="316" y="164" font-family="Consolas, monospace" font-size="10" fill="#64ffda" text-anchor="end" opacity="0.85">Done</text>
  <line x1="66" y1="190" x2="66" y2="202" stroke="#64ffda" stroke-width="2"/>
  <circle cx="66" cy="184" r="7" fill="#1f9e83"/><path d="M62.5,184 l2.5,3 l5,-6" fill="none" stroke="#0a192f" stroke-width="2" stroke-linecap="round" stroke-linejoin="round"/>
  <text x="84" y="188" font-family="Consolas, monospace" font-size="12" fill="#ccd6f6">Letter of Intent</text>
  <text x="316" y="188" font-family="Consolas, monospace" font-size="10" fill="#64ffda" text-anchor="end" opacity="0.85">Done</text>
  <line x1="66" y1="214" x2="66" y2="226" stroke="#64ffda" stroke-width="2"/>
  <circle cx="66" cy="208" r="7" fill="#1f9e83"/><path d="M62.5,208 l2.5,3 l5,-6" fill="none" stroke="#0a192f" stroke-width="2" stroke-linecap="round" stroke-linejoin="round"/>
  <text x="84" y="212" font-family="Consolas, monospace" font-size="12" fill="#ccd6f6">Acceptance</text>
  <text x="316" y="212" font-family="Consolas, monospace" font-size="10" fill="#64ffda" text-anchor="end" opacity="0.85">Done</text>
  <line x1="66" y1="238" x2="66" y2="250" stroke="#64ffda" stroke-width="2"/>
  <circle cx="66" cy="232" r="7" fill="#1f9e83"/><path d="M62.5,232 l2.5,3 l5,-6" fill="none" stroke="#0a192f" stroke-width="2" stroke-linecap="round" stroke-linejoin="round"/>
  <text x="84" y="236" font-family="Consolas, monospace" font-size="12" fill="#ccd6f6">POL</text>
  <text x="316" y="236" font-family="Consolas, monospace" font-size="10" fill="#64ffda" text-anchor="end" opacity="0.85">Done</text>
  <line x1="66" y1="262" x2="66" y2="274" stroke="#64ffda" stroke-width="2"/>
  <circle cx="66" cy="256" r="7" fill="#1f9e83"/><path d="M62.5,256 l2.5,3 l5,-6" fill="none" stroke="#0a192f" stroke-width="2" stroke-linecap="round" stroke-linejoin="round"/>
  <text x="84" y="260" font-family="Consolas, monospace" font-size="12" fill="#ccd6f6">NOC</text>
  <text x="316" y="260" font-family="Consolas, monospace" font-size="10" fill="#64ffda" text-anchor="end" opacity="0.85">Done</text>
  <line x1="66" y1="286" x2="66" y2="298" stroke="#64ffda" stroke-width="2"/>
  <circle cx="66" cy="280" r="7" fill="#1f9e83"/><path d="M62.5,280 l2.5,3 l5,-6" fill="none" stroke="#0a192f" stroke-width="2" stroke-linecap="round" stroke-linejoin="round"/>
  <text x="84" y="284" font-family="Consolas, monospace" font-size="12" fill="#ccd6f6">e-Registration</text>
  <text x="316" y="284" font-family="Consolas, monospace" font-size="10" fill="#64ffda" text-anchor="end" opacity="0.85">Done</text>
  <line x1="66" y1="310" x2="66" y2="322" stroke="#64ffda" stroke-width="2"/>
  <circle cx="66" cy="304" r="7" fill="#1f9e83"/><path d="M62.5,304 l2.5,3 l5,-6" fill="none" stroke="#0a192f" stroke-width="2" stroke-linecap="round" stroke-linejoin="round"/>
  <text x="84" y="308" font-family="Consolas, monospace" font-size="12" fill="#ccd6f6">Possession</text>
  <text x="316" y="308" font-family="Consolas, monospace" font-size="10" fill="#64ffda" text-anchor="end" opacity="0.85">Done</text>
  <circle cx="66" cy="328" r="11" fill="#ffb703" opacity="0.25"/><circle cx="66" cy="328" r="6" fill="#ffb703" filter="url(#glow)"/>
  <text x="84" y="332" font-family="Consolas, monospace" font-size="12" fill="#ccd6f6" font-weight="bold">Key Handover</text>
  <text x="316" y="332" font-family="Consolas, monospace" font-size="10" fill="#ffb703" text-anchor="end" opacity="0.85">In progress</text>
  <rect x="58" y="354" width="256" height="8" rx="4" fill="#233554"/>
  <rect x="58" y="354" width="230.4" height="8" rx="4" fill="#64ffda"/>
  <text x="58" y="380" font-family="Consolas, monospace" font-size="11" fill="#8892b0">9/10 stages complete</text>
  <text x="314" y="380" font-family="Consolas, monospace" font-size="11" fill="#64ffda" text-anchor="end">90%</text>
</g>
<path d="M330,328 C450,328 431.7,131.5 491.7,195.5" fill="none" stroke="#ffb703" stroke-width="1.5" stroke-dasharray="5 6" stroke-opacity="0.8"/>

<text x="1160" y="714" font-family="Segoe UI, Arial, sans-serif" font-size="26" fill="#ccd6f6" text-anchor="end" font-weight="600">Satara And Parijat FCFS</text>
<text x="1160" y="736" font-family="Consolas, monospace" font-size="13" fill="#64ffda" text-anchor="end">Bank-sale tenements · Selection → LOI → NOC → e-Registration → Keys</text>
</svg>
